HIERARCHY
ROOT Hips
{
	OFFSET 0.00000 0.00000 0.00000
	CHANNELS 6 Xposition Yposition Zposition Yrotation Zrotation Xrotation 
	JOINT Lumbar
	{
		OFFSET 0 0 0
		CHANNELS 3 Zrotation Xrotation Yrotation
		JOINT Neck
		{
			OFFSET 0.00 0.2701 0.00
			CHANNELS 3 Zrotation Xrotation Yrotation
			End Site
			{
				OFFSET 0.00 0.1379 0.00
			}
		}
		JOINT RightShoulder
		{
			OFFSET 0.0119 0.2289 0.1181
			CHANNELS 3 Zrotation Xrotation Yrotation
			JOINT RightElbow
			{
				OFFSET 0.00 -0.1475 0.00
				CHANNELS 2 Zrotation Yrotation
				JOINT RightWrist
				{
					OFFSET 0.00 -0.1605 0.00
					CHANNELS 2 Zrotation Xrotation
					End Site
					{
						OFFSET 0.0040 -0.1068 0.0006
					}
				}
			}
		}
		JOINT LeftShoulder
		{
			OFFSET 0.0119 0.2289 -0.1181
			CHANNELS 3 Zrotation Xrotation Yrotation
			JOINT LeftElbow
			{
				OFFSET 0.00 -0.1475 0.00
				CHANNELS 2 Zrotation Yrotation
				JOINT LeftWrist
				{
					OFFSET 0.00 -0.1605 0.00
					CHANNELS 2 Zrotation Xrotation
					End Site
					{
						OFFSET 0.0040 -0.1068 -0.0006
					}
				}
			}
		}
	}
	JOINT RightHip
	{
		OFFSET 0.0316 -0.0424 0.0458
		CHANNELS 3 Zrotation Xrotation Yrotation
		JOINT RightKnee
		{
			OFFSET 0.00 -0.2438 0.00
			CHANNELS 1 Zrotation
			JOINT RightAnkle
			{
				OFFSET 0.00 -0.2449 0.00
				CHANNELS 3 Zrotation Xrotation Yrotation
				End Site
				{
					OFFSET 0.1237 -0.0542 0.0051
				}
			}
		}
	}
	JOINT LeftHip
	{
		OFFSET 0.0316 -0.0424 -0.0458
		CHANNELS 3 Zrotation Xrotation Yrotation
		JOINT LeftKnee
		{
			OFFSET 0.00 -0.2438 0.00
			CHANNELS 1 Zrotation
			JOINT LeftAnkle
			{
				OFFSET 0.00 -0.2449 0.00
				CHANNELS 3 Zrotation Xrotation Yrotation
				End Site
				{
					OFFSET 0.1237 -0.0542 -0.0051
				}
			}
		}
	}
}
MOTION
Frames: 27
Frame Time: 0.02
0.07701 0.01 0.39694 190.06294 -44.77508 -5.33736 52.20655 2.73106 1.6101 -1.50045 -13.00445 -0.83079 -20.98712 -17.93744 15.65736 105.84529 76.34364 -23.76755 -1.63119 158.11563 49.22311 87.3852 5.34439 -79.13754 -0.80956 -3.771 36.24399 -15.20438 -1.38419 -3.25643 -14.16332 -8.41583 -6.07353 50.54823 -1.16712 10.79244 -19.87193 -8.78374 5.48455 3.70848
0.07693 0.01001 0.39751 190.29152 -44.93605 -5.33027 52.1017 2.79948 1.83752 -0.74771 -13.33462 -0.83079 -21.0619 -18.07833 15.75832 106.03475 76.36223 -23.19248 -1.76532 157.7155 49.26107 91.99978 5.32224 -79.25661 -0.87364 -3.85462 36.17491 -15.23981 -1.6745 -2.98748 -14.29669 -8.61197 -6.1269 50.69686 -1.24911 10.67873 -19.84267 -8.80556 5.48648 3.70898
0.07685 0.00995 0.39808 190.60542 -45.13866 -5.28483 52.06258 2.79232 2.18486 -0.17398 -13.31488 -0.83079 -21.21081 -18.38715 15.87781 106.27958 76.39974 -22.25768 -2.00154 156.97216 49.29883 89.23863 5.32898 -79.55464 -0.89418 -3.72192 36.10931 -15.29901 -2.1729 -2.67406 -14.46441 -8.55457 -5.99491 50.89677 -1.35257 10.60274 -19.82817 -8.81712 5.48386 3.7061
0.07676 0.00993 0.39865 190.88044 -45.31892 -5.25982 51.99413 2.82057 2.46499 0.46676 -13.45419 -0.83079 -21.31854 -18.60323 15.98482 106.49032 76.39819 -21.53257 -2.1792 156.40944 49.33451 90.04729 5.32996 -79.73802 -0.92958 -3.6906 36.03798 -15.34428 -2.7615 -2.38344 -14.60494 -8.49825 -5.88471 51.06825 -1.44322 10.50578 -19.80669 -8.83286 5.48329 3.70476
0.07671 0.0099 0.39924 191.15491 -45.51334 -5.22265 51.92102 2.8454 2.80304 1.17115 -13.59146 -0.83079 -21.46471 -18.87966 16.10152 106.74182 76.51035 -20.62565 -2.40369 155.73665 49.38248 90.19427 5.32739 -79.98041 -0.96202 -3.63109 35.98441 -15.40305 -2.59781 -2.08231 -14.79257 -8.91064 -6.03267 51.26095 -1.54666 10.42521 -19.78618 -8.85083 5.48288 3.70344
0.07657 0.00986 0.39978 191.45129 -45.68825 -5.20134 51.87412 2.85886 3.04795 1.69891 -13.65027 -0.83079 -21.5468 -19.07376 16.2045 106.92088 76.39956 -20.00431 -2.5575 155.21285 49.40325 89.86428 5.32904 -80.17262 -0.99877 -3.58412 35.89498 -15.43933 -4.01363 -1.79314 -14.89207 -8.30905 -5.60972 51.42183 -1.62857 10.3205 -19.76723 -8.86154 5.48094 3.7012
0.07615 0.00986 0.40022 191.78572 -45.79939 -5.23509 51.88384 2.86121 2.99848 1.78695 -13.58215 -0.83079 -21.42126 -18.99921 16.27523 106.88013 75.62405 -20.29105 -2.48026 155.19792 49.35361 90.07105 5.3285 -80.19714 -1.06611 -3.63262 35.70079 -15.4066 -10.06164 -1.5381 -14.72542 -4.75497 -3.54955 51.48184 -1.6462 10.12604 -19.74888 -8.85598 5.47687 3.69803
0.07564 0.00986 0.40062 192.13951 -45.88942 -5.28571 51.91791 2.8543 2.852 1.70222 -13.44668 -0.83079 -21.22985 -18.83757 16.3311 106.76512 74.63402 -20.8699 -2.33086 155.34333 49.27559 90.00624 5.32846 -80.1742 -1.14124 -3.70199 35.47125 -15.35061 -17.63039 -1.29824 -14.47131 -0.22934 -0.94184 51.50818 -1.64142 9.90829 -19.73162 -8.84325 5.47126 3.69393
0.07519 0.00985 0.40104 192.48584 -45.98903 -5.32736 51.94102 2.85032 2.75428 1.69345 -13.3397 -0.83079 -21.07574 -18.71694 16.38788 106.68779 73.772 -21.29331 -2.22217 155.40752 49.20685 89.9984 5.32864 -80.17508 -1.21111 -3.75889 35.26095 -15.30589 -24.29492 -1.05769 -14.26717 3.71313 1.34809 51.55032 -1.64658 9.71018 -19.71394 -8.83295 5.46569 3.68975
0.0747 0.00985 0.40146 192.83024 -46.09031 -5.37327 51.96612 2.84902 2.64076 1.68936 -13.22948 -0.83079 -20.89343 -18.59499 16.46856 106.59623 72.77878 -21.80153 -2.08366 155.49477 49.15246 90.02188 5.32852 -80.1707 -1.28647 -3.82058 35.03719 -15.25891 -31.87451 -0.78953 -14.02242 8.26666 3.94142 51.59223 -1.65331 9.47546 -19.69645 -8.8257 5.46267 3.68754
0.07425 0.00985 0.40185 193.1812 -46.18237 -5.41471 51.99179 2.84107 2.53595 1.63674 -13.11448 -0.83079 -20.75301 -18.45419 16.49734 106.5155 72.01122 -22.20539 -1.98869 155.5767 49.06264 90.00642 5.32857 -80.16461 -1.35264 -3.88009 34.83325 -15.211 -37.89643 -0.58288 -13.83934 11.76935 6.02299 51.62582 -1.6514 9.31059 -19.67862 -8.81062 5.45411 3.68111
0.07394 0.00986 0.40215 193.55308 -46.25538 -5.44076 52.01456 2.81596 2.47451 1.49353 -13.0054 -0.83079 -20.74556 -18.27153 16.3726 106.48615 71.88829 -22.26646 -2.03216 155.60555 48.87174 90.01159 5.32856 -80.16411 -1.3948 -3.93041 34.69081 -15.16441 -39.33408 -0.54431 -13.86284 12.18154 6.6227 51.64545 -1.62904 9.34755 -19.65963 -8.77492 5.43019 3.66273
0.07368 0.00988 0.40242 193.92894 -46.31936 -5.46172 52.03641 2.78503 2.42536 1.30809 -12.89516 -0.83079 -20.78196 -18.07406 16.1986 106.46943 72.00465 -22.21159 -2.12125 155.62512 48.64817 90.01193 5.32855 -80.16415 -1.42705 -3.97851 34.56988 -15.11792 -39.13687 -0.56705 -13.94877 11.49458 6.67724 51.65738 -1.59901 9.45486 -19.64018 -8.73178 5.40086 3.64026
0.0734 0.00989 0.4027 194.2978 -46.38651 -5.48451 52.05742 2.75787 2.37293 1.14216 -12.78546 -0.83079 -20.79706 -17.89 16.05626 106.44438 72.03296 -22.19988 -2.18866 155.65015 48.44611 90.0102 5.32857 -80.16286 -1.46207 -4.02761 34.44026 -15.07246 -39.62499 -0.56059 -13.99584 11.27454 6.93529 51.67212 -1.57377 9.52758 -19.62079 -8.6926 5.37432 3.62002
0.07312 0.00991 0.40298 194.68986 -46.45705 -5.50992 52.08481 2.72568 2.30761 0.96885 -12.67296 -0.83079 -20.81553 -17.67531 15.87453 106.4274 71.97034 -22.2362 -2.25793 155.67526 48.21451 90.01157 5.32854 -80.16039 -1.50491 -4.07766 34.30472 -15.02166 -40.39773 -0.56001 -14.08302 11.21665 7.39173 51.68889 -1.54235 9.61033 -19.602 -8.65072 5.3463 3.59816
0.07286 0.00993 0.40325 195.03357 -46.51843 -5.52845 52.09818 2.7026 2.27311 0.80301 -12.56712 -0.83079 -20.83848 -17.52139 15.76299 106.39793 72.15178 -22.14387 -2.33469 155.696 48.03759 90.01081 5.32857 -80.16637 -1.5287 -4.12456 34.18724 -14.98229 -40.18452 -0.56189 -14.10406 10.55927 7.3079 51.69975 -1.52216 9.68947 -19.58192 -8.61278 5.32013 3.57871
0.07263 0.00994 0.40348 195.24833 -46.5588 -5.52929 52.07407 2.70734 2.32271 0.67075 -12.47919 -0.83079 -20.86105 -17.54446 15.86042 106.32782 72.99275 -21.70066 -2.42463 155.70581 48.01526 90.00867 5.32874 -80.14856 -1.50516 -4.16723 34.11386 -14.97449 -37.50447 -0.55346 -13.91555 8.40537 5.77889 51.69898 -1.53563 9.73963 -19.55789 -8.58773 5.3002 3.56683
0.07242 0.00995 0.40371 195.41303 -46.59003 -5.52336 52.03535 2.72126 2.40299 0.54799 -12.3985 -0.83079 -20.88723 -17.62856 16.02962 106.24552 74.06416 -21.13504 -2.52019 155.71067 48.05005 90.00612 5.32894 -80.14687 -1.46236 -4.20607 34.05871 -14.97823 -33.90294 -0.54638 -13.66128 5.70065 3.73766 51.69237 -1.56054 9.78435 -19.53277 -8.56691 5.28234 3.55753
0.07221 0.00996 0.40393 195.59703 -46.62415 -5.5203 52.00276 2.73027 2.46837 0.41995 -12.31538 -0.83079 -20.91353 -17.68155 16.16412 106.17132 75.0019 -20.63968 -2.61113 155.71816 48.06168 90.00376 5.32912 -80.17052 -1.42636 -4.24389 33.99506 -14.97687 -30.81645 -0.53915 -13.44472 3.31665 1.98594 51.68653 -1.57991 9.83263 -19.50835 -8.54408 5.26364 3.54708
0.07199 0.00998 0.40416 195.79617 -46.66307 -5.51764 51.97314 2.74226 2.5382 0.29393 -12.22857 -0.83079 -20.93424 -17.74832 16.30604 106.08718 76.06908 -20.07856 -2.71234 155.72507 48.06032 90.00089 5.32934 -80.06176 -1.39779 -4.29295 33.93092 -14.97513 -27.28768 -0.52936 -13.19578 0.60204 -0.02096 51.68759 -1.60079 9.87808 -19.48262 -8.52134 5.24432 3.53636
0.07179 0.00998 0.40439 195.95132 -46.69018 -5.51296 51.93283 2.75022 2.60587 0.1671 -12.15113 -0.83079 -20.96644 -17.80096 16.44976 106.0201 76.9195 -19.62702 -2.79292 155.73054 48.10001 89.99915 5.32947 -80.2257 -1.34989 -4.31819 33.87451 -14.97659 -24.45706 -0.52786 -12.99973 -1.54598 -1.61471 51.67396 -1.62091 9.92809 -19.45988 -8.49956 5.22685 3.52687
0.07157 0.00992 0.40459 196.00138 -46.68521 -5.50147 51.8753 2.74563 2.66029 0.03118 -12.09865 -0.83079 -21.03266 -17.80079 16.58491 106.00828 77.10329 -19.50706 -2.81456 155.74545 48.23874 90.00091 5.32934 -81.19792 -1.24815 -4.27435 33.81232 -14.98719 -24.00997 -0.51896 -12.949 -1.94314 -1.90753 51.61324 -1.64006 9.9837 -19.44146 -8.47921 5.21412 3.52026
0.07138 0.00983 0.40479 196.00802 -46.66913 -5.48877 51.80574 2.73658 2.71128 -0.10485 -12.05533 -0.83079 -21.10924 -17.78413 16.71901 106.01315 77.06171 -19.50275 -2.81485 155.75601 48.41667 90.00382 5.32911 -82.43267 -1.12863 -4.20742 33.76155 -15.00013 -24.26766 -0.52352 -12.95606 -1.75451 -1.77019 51.53968 -1.65744 10.04497 -19.42689 -8.45983 5.2032 3.51482
0.07119 0.00976 0.40499 196.03191 -46.65917 -5.47852 51.73616 2.72899 2.76379 -0.23761 -12.00707 -0.83079 -21.17912 -17.77437 16.85104 106.0068 77.13018 -19.4462 -2.82547 155.76164 48.57749 90.00606 5.32894 -83.50878 -1.02069 -4.15393 33.72012 -15.00981 -24.05311 -0.54138 -12.94809 -1.86344 -1.85052 51.47696 -1.67301 10.10918 -19.41333 -8.44009 5.19131 3.50875
0.07093 0.00969 0.40521 196.0649 -46.64392 -5.45994 51.68985 2.72392 2.818 -0.38355 -11.96177 -0.83079 -21.25865 -17.76938 16.99576 106.0149 77.17583 -19.38236 -2.83485 155.79967 48.73881 90.00889 5.32872 -84.75271 -0.89727 -4.08811 33.61741 -15.02875 -24.4252 -0.47781 -12.8927 -1.86319 -1.85745 51.39197 -1.6997 10.1513 -19.38804 -8.41989 5.17997 3.50307
0.07082 0.00962 0.40539 196.06883 -46.63771 -5.45861 51.59162 2.71268 2.86689 -0.50231 -11.91311 -0.83079 -21.31908 -17.74959 17.11355 105.9976 77.21098 -19.3648 -2.84017 155.76499 48.90576 90.01079 5.32858 -85.70769 -0.80217 -4.04226 33.64554 -15.02933 -23.78215 -0.58642 -12.94783 -1.93985 -1.90583 51.35153 -1.70303 10.23916 -19.38818 -8.40115 5.16808 3.49694
0.07106 0.00958 0.40546 196.00759 -46.65504 -5.50432 51.35924 2.68322 2.90577 -0.54458 -11.84691 -0.83079 -21.33536 -17.69436 17.15189 105.9013 77.28371 -19.42879 -2.85317 155.56649 49.09374 90.00958 5.32868 -85.81534 -0.78926 -4.05957 34.02642 -14.97397 -19.93504 -1.1727 -13.31871 -2.40272 -2.19231 51.42816 -1.63902 10.46602 -19.45727 -8.38337 5.15262 3.48827
